<?xml version="1.0" encoding="utf-8"?>
<!-- Generator: Adobe Illustrator 26.0.2, SVG Export Plug-In . SVG Version: 6.00 Build 0)  -->
<svg version="1.1" id="Symbol" xmlns="http://www.w3.org/2000/svg" xmlns:xlink="http://www.w3.org/1999/xlink" x="0px" y="0px"
	 viewBox="0 0 144 144" style="enable-background:new 0 0 144 144;" xml:space="preserve">
<style type="text/css">
	.st0{fill:#FFFFFF;}
</style>
<circle class="st0" cx="71.9" cy="71.9" r="10.7"/>
<path class="st0" d="M91.1,71.9c0-7.1-3.9-13.3-9.6-16.6l17.4-30.1c16.2,9.3,27,26.8,27,46.8H91.1z"/>
<path class="st0" d="M45,118.7c7.9,4.6,17.1,7.2,26.9,7.2c9.9,0,19.1-2.7,27.1-7.3l-17.7-30c-2.8,1.6-6,2.5-9.4,2.5
	c-3.5,0-6.7-0.9-9.5-2.5L45,118.7z"/>
<path class="st0" d="M44.8,25.3c-16,9.4-26.8,26.7-26.8,46.6h34.8c0-7,3.7-13.1,9.3-16.5L44.8,25.3z"/>
</svg>
