<?xml version="1.0" encoding="utf-8"?>
<!-- Generator: Adobe Illustrator 26.0.2, SVG Export Plug-In . SVG Version: 6.00 Build 0)  -->
<svg version="1.1" xmlns="http://www.w3.org/2000/svg" xmlns:xlink="http://www.w3.org/1999/xlink" x="0px" y="0px"
	 viewBox="0 0 144 144" style="enable-background:new 0 0 144 144;" xml:space="preserve">
<style type="text/css">
	.st0{fill:#FFFFFF;}
</style>
<g id="Guides">
</g>
<g id="Layer_3">
	<path class="st0" d="M117.1,68.4c0-16.4-8.8-30.7-22-38.5L72.3,68.4H117.1z"/>
	<path class="st0" d="M50,107.2c6.6,3.8,14.2,6,22.3,6c8.1,0,15.7-2.1,22.2-5.9L72.3,68.4L50,107.2z"/>
	<path class="st0" d="M27.5,68.4c0-16.4,8.8-30.7,22-38.5l22.8,38.5H27.5z"/>
	<g>
		<path class="st0" d="M72.3,84.5c-8.4,0-15.2-6.8-15.2-15.2c0-8.4,6.8-15.2,15.2-15.2c8.4,0,15.2,6.8,15.2,15.2
			C87.5,77.7,80.7,84.5,72.3,84.5z"/>
		<path d="M72.3,60.1c5.1,0,9.2,4.1,9.2,9.2s-4.1,9.2-9.2,9.2s-9.2-4.1-9.2-9.2S67.2,60.1,72.3,60.1 M72.3,48.1
			c-11.7,0-21.2,9.5-21.2,21.2s9.5,21.2,21.2,21.2S93.5,81,93.5,69.3S84,48.1,72.3,48.1L72.3,48.1z"/>
	</g>
</g>
</svg>
