<?xml version="1.0" encoding="utf-8"?>
<!-- Generator: Adobe Illustrator 26.0.2, SVG Export Plug-In . SVG Version: 6.00 Build 0)  -->
<svg version="1.1" xmlns="http://www.w3.org/2000/svg" xmlns:xlink="http://www.w3.org/1999/xlink" x="0px" y="0px"
	 viewBox="0 0 144 144" style="enable-background:new 0 0 144 144;" xml:space="preserve">
<style type="text/css">
	.st0{fill:#FFFFFF;stroke:#000000;stroke-width:2;stroke-linejoin:bevel;stroke-miterlimit:10;}
	.st1{fill:none;stroke:#000000;stroke-width:4;stroke-linecap:round;stroke-miterlimit:10;}
	.st2{fill:none;stroke:#000000;stroke-width:4;stroke-linejoin:bevel;stroke-miterlimit:10;}
	.st3{fill:#FFFFFF;stroke:#000000;stroke-width:2;stroke-miterlimit:10;}
	.st4{fill:#FFFFFF;stroke:#000000;stroke-width:4;stroke-miterlimit:10;}
	.st5{fill:#FFFFFF;stroke:#000000;stroke-width:4;stroke-linecap:round;stroke-miterlimit:10;}
	.st6{fill:none;stroke:#000000;stroke-width:1.75;stroke-miterlimit:10;}
	.st7{fill:none;stroke:#000000;stroke-width:4;stroke-miterlimit:10;}
	.st8{fill:#FFFFFF;stroke:#000000;stroke-miterlimit:10;}
	.st9{fill:#FFFFFF;stroke:#000000;stroke-width:3;stroke-miterlimit:10;}
	.st10{fill:none;stroke:#000000;stroke-width:2;stroke-miterlimit:10;}
</style>
<g id="Guides">
</g>
<g id="Layer_4">
	<polygon class="st0" points="48,19 26,47.4 48,115 79,115 73.4,40.7 	"/>
	<polyline class="st1" points="27.7,49.1 32.8,54.3 41.5,52.9 53.4,53.2 60.3,54.3 72.2,42.5 	"/>
	<polyline class="st2" points="68.6,95.7 60.3,54.3 47.9,21.4 32.8,54.3 44.7,92.2 	"/>
	<polygon class="st3" points="101.3,48.2 89.6,49.2 81.4,55.6 65.3,99.4 65.3,112.3 83.9,112.3 106.8,64 	"/>
	<polygon class="st3" points="100.7,92.2 91.6,92.2 76,103.1 72.1,110 74.5,121 81.2,121.5 97.3,105.5 	"/>
	<polygon class="st3" points="28.4,93 45.8,90.7 57.2,116.8 52.5,119.9 45.7,118.3 	"/>
	<line class="st4" x1="85.4" y1="68.1" x2="66.4" y2="107.3"/>
	<polygon class="st3" points="54.2,96.4 50.8,106.4 55.7,117.9 60.2,118.3 62.2,116.2 62.2,102.7 	"/>
	<polygon class="st3" points="67.8,104.4 61.3,111.5 61.3,118.4 65.3,124.5 74.5,121 70.8,108.4 	"/>
	<polyline class="st5" points="105.1,65.2 95.1,72 85.4,68.1 82,57.6 	"/>
	<line class="st5" x1="95.1" y1="72" x2="85.4" y2="94.8"/>
	<polyline class="st5" points="99,94.3 93,102 75.3,116.7 	"/>
	<path class="st6" d="M91.9,94.3"/>
	<polyline class="st7" points="91.6,92.2 93,102 97.3,105.5 	"/>
	<path class="st8" d="M118.8,81.5"/>
	<polygon class="st3" points="67.9,109.9 62.3,112 65.9,121.8 71.6,112 	"/>
	<polyline class="st9" points="29.2,93 42.8,103.4 52.5,119.3 	"/>
	<line class="st9" x1="42.8" y1="103.4" x2="45.3" y2="90.7"/>
	<polyline class="st3" points="50.8,106.4 60.6,107.3 60.2,118.3 	"/>
	<path class="st10" d="M61.8,102.4l-1.3,5c0,0-5.8-9.7-6.1-10.3"/>
	<path class="st10" d="M54.2,96.4"/>
</g>
</svg>
