<?xml version="1.0" encoding="utf-8"?>
<!-- Generator: Adobe Illustrator 26.0.2, SVG Export Plug-In . SVG Version: 6.00 Build 0)  -->
<svg version="1.1" id="Layer_1" xmlns="http://www.w3.org/2000/svg" xmlns:xlink="http://www.w3.org/1999/xlink" x="0px" y="0px"
	 viewBox="0 0 144 144" style="enable-background:new 0 0 144 144;" xml:space="preserve">
<style type="text/css">
	.st0{fill:#E57917;stroke:#000000;stroke-width:1.75;stroke-miterlimit:10;}
	.st1{fill:#FFFFFF;}
</style>
<g id="Layer_2_00000062913673885654529520000015873652950312164486_">
</g>
<g id="Shuttle_Icon">
	<path id="Boosters" class="st0" d="M82.5,125.8h16.3V47.1c0,0,0-9.7-6.6-9.7s-6.6,9.1-6.6,9.1s0.6-28.7-13.1-28.7S60,46.7,60,46.7
		s-0.7-9.4-7.1-9.3c-6.4,0-6.4,11-6.4,11v77.4h16.3V100h19.8L82.5,125.8z"/>
	<g id="Shuttle">
		<path class="st1" d="M61.8,116.5v-4.2L41,109.1l-0.4-1.2c-2.5-7.6,5.6-12.9,11.5-16.8c2.4-1.6,4.7-3.1,5.6-4.2
			c1-1.3,2.1-7.8,3-13.1c2.3-13.6,4.7-27.7,11.9-27.7c7.1,0,9.2,12.5,11.6,25.8c1.1,6.2,2.2,12.6,3.6,15c1.7,2,4.5,3.7,7.2,5.4
			c5.5,3.5,12.4,7.8,9.5,15.6l-0.4,1.2l-1.3,0.1c-2.4,0.2-14.9,2.2-19.5,3v4l-10.7,2.3L61.8,116.5z"/>
		<path d="M72.7,48.1c8.6,0,9.2,33.1,13.6,40c5.7,6.7,19.9,9.7,16.4,19.2c-3.1,0.3-21.3,3.2-21.3,3.2v4.1l-8.7,1.9l-8.8-1.7v-4.3
			l-21.3-3.2c-3-8.9,13.2-14.6,16.8-19.2C62.9,83.6,64,48.1,72.7,48.1 M72.7,44.1c-8.9,0-11.3,14.3-13.9,29.4
			C58,78.1,57,84.3,56.2,85.7c-0.8,0.9-3,2.4-5.1,3.7c-6.1,4-15.4,10.1-12.3,19.1l0.8,2.3l2.4,0.4l17.9,2.7v0.8v3.3l3.2,0.6l8.8,1.7
			l0.8,0.2l0.8-0.2l8.7-1.9l3.1-0.7v-3.2v-0.7c6.1-1,15.7-2.5,17.7-2.7l2.5-0.2l0.9-2.4c3.4-9.3-4.5-14.3-10.4-18
			c-2.5-1.6-5-3.2-6.6-4.9c-1.2-2.2-2.4-8.8-3.3-14.2C83.7,57.5,81.4,44.1,72.7,44.1L72.7,44.1z"/>
	</g>
</g>
</svg>
