<?xml version="1.0" encoding="utf-8"?>
<!-- Generator: Adobe Illustrator 26.0.2, SVG Export Plug-In . SVG Version: 6.00 Build 0)  -->
<svg version="1.1" id="Gem" xmlns="http://www.w3.org/2000/svg" xmlns:xlink="http://www.w3.org/1999/xlink" x="0px" y="0px"
	 viewBox="0 0 144 144" style="enable-background:new 0 0 144 144;" xml:space="preserve">
<style type="text/css">
	.st0{fill:#FF7712;}
	.st1{fill:#C96717;}
	.st2{fill:#FFFFFF;}
	.st3{fill:#E57917;}
	.st4{fill:#FF9B50;}
	.st5{fill:#FFC28F;}
	.st6{fill:#FF7712;stroke:#000000;stroke-width:2;stroke-linecap:round;stroke-linejoin:bevel;stroke-miterlimit:10;}
</style>
<g id="Cluster6">
	<g>
		<polygon class="st0" points="39.4,106.3 54.3,113.5 24.5,116.7 		"/>
		<g>
			<path d="M39.4,107.5l11.2,5.4l-22.4,2.4L39.4,107.5 M39.3,105.2l-18.5,12.9l37.1-3.9L39.3,105.2L39.3,105.2z"/>
		</g>
	</g>
	<g>
		<polygon class="st1" points="25.6,118.6 55.4,115.4 46.8,125.4 		"/>
		<path d="M53,116.7l-6.6,7.5l-16-5.1L53,116.7 M57.8,114.2l-37.1,3.9l26.3,8.4L57.8,114.2L57.8,114.2z"/>
	</g>
</g>
<g id="Cluster5">
	<g>
		<polygon class="st2" points="103.5,40 103.5,30 116.6,48 		"/>
		<g>
			<path d="M104.5,33l8.3,11.5l-8.3-5.1V33 M102.5,26.9v13.6l17.9,10.9L102.5,26.9L102.5,26.9z"/>
		</g>
	</g>
	<g>
		<polygon class="st3" points="83.7,38.4 101.5,28.6 101.5,39.5 		"/>
		<g>
			<path d="M100.5,30.3v8.1l-13.3-0.8L100.5,30.3 M102.5,26.9L80.2,39.2l22.3,1.4V26.9L102.5,26.9z"/>
		</g>
	</g>
	<g>
		<polygon class="st3" points="74.1,60.7 80.9,40.2 101.3,41.5 89.1,96.5 		"/>
		<path d="M81.6,41.3l18.5,1.1L88.8,93.2L75.1,60.7L81.6,41.3 M80.2,39.2L73,60.7l16.4,39.1l13.1-59.3L80.2,39.2L80.2,39.2z"/>
	</g>
	<g>
		<polygon class="st4" points="90.6,98.9 103.2,42.1 119.2,51.9 107,100.4 		"/>
		<g>
			<path d="M103.8,43.7l14.2,8.7l-11.8,47L91.8,98L103.8,43.7 M102.5,40.5L89.4,99.8l18.3,1.7l12.6-50L102.5,40.5L102.5,40.5z"/>
		</g>
	</g>
</g>
<g id="Cluster4">
	<g>
		<polygon class="st2" points="47.5,13.8 75.4,26.5 59.2,29.2 		"/>
		<g>
			<path d="M50.7,16.3L72,26l-12.4,2.1L50.7,16.3 M44.3,11.2l14.4,19l20-3.4L44.3,11.2L44.3,11.2z"/>
		</g>
	</g>
	<g>
		<polygon class="st3" points="44.7,13.3 57.4,30 32.8,47.4 		"/>
		<path d="M45,15.4l10.9,14.4L34.8,44.8L45,15.4 M44.3,11.2L30.8,50l27.9-19.7L44.3,11.2L44.3,11.2z"/>
	</g>
	<g>
		<polygon class="st5" points="60.1,31.1 78,28 93.9,90.6 82.8,102 		"/>
		<g>
			<path d="M77.3,29.2l15.5,61.1l-9.5,9.8L61.4,31.9L77.3,29.2 M78.8,26.9l-20,3.4l23.6,73.6l12.6-13L78.8,26.9L78.8,26.9z"/>
		</g>
	</g>
	<g>
		<polygon class="st3" points="55.7,98.3 32.1,50.3 58.2,31.9 80.9,102.6 		"/>
		<path d="M57.7,33.5l21.7,67.9l-23.1-3.9l-23-46.8L57.7,33.5 M58.8,30.3L30.8,50L55,99.2l27.3,4.6L58.8,30.3L58.8,30.3z"/>
	</g>
</g>
<g id="Cluster2_00000057115455479890340060000017620886404809605529_">
	<g>
		<polygon class="st1" points="20,83.3 25.9,54 45.2,83.8 		"/>
		<path d="M26.4,56.6l17,26.1l-22.1-0.4L26.4,56.6 M25.4,51.4l-6.6,32.9l28.3,0.5L25.4,51.4L25.4,51.4z"/>
	</g>
	<g>
		<polygon class="st2" points="28.4,54.2 54.3,68.5 47,82.8 		"/>
		<g>
			<path d="M31.4,57L53,68.9l-6.1,11.9L31.4,57 M25.4,51.4l21.7,33.4l8.6-16.7L25.4,51.4L25.4,51.4z"/>
		</g>
	</g>
	<g>
		<path class="st4" d="M48.2,84.8l7.1-13.7c2.4,11.2,5.5,26,5.8,27.5l-1.2,8.2L48.2,84.8z"/>
		<g>
			<path d="M54.9,74c2.2,10.4,4.8,22.6,5.2,24.6l-0.8,5l-9.9-18.8L54.9,74 M55.7,68.1l-8.6,16.7l13.3,25.1l1.7-11.3
				C62.1,98,55.7,68.1,55.7,68.1L55.7,68.1z"/>
		</g>
	</g>
	<g>
		<polygon class="st1" points="21.2,85.4 46.5,85.8 58.8,109.1 45.6,110.9 		"/>
		<path d="M23.5,86.4l22.3,0.4l11.4,21.5L46,109.9L23.5,86.4 M18.8,84.3L45.3,112l15.1-2.1L47.1,84.8L18.8,84.3L18.8,84.3z"/>
	</g>
	<g>
		<polygon class="st3" points="32.3,54.1 46.5,57.5 52.1,65 		"/>
		<g>
			<path d="M39.2,56.8l6.7,1.6l2.7,3.6L39.2,56.8 M25.4,51.4l30.3,16.7l-8.6-11.5L25.4,51.4L25.4,51.4z"/>
		</g>
	</g>
	<path class="st6" d="M25.4,51.4"/>
</g>
<g id="Cluster1">
	<g>
		<polygon class="st1" points="33,104.5 39,99.5 57.7,92.7 49.5,104.5 		"/>
		<g>
			<path d="M55.1,94.7l-6.1,8.7H35.7l3.8-3.1L55.1,94.7 M60.3,90.7L60.3,90.7L60.3,90.7z M60.3,90.7l-21.9,7.9l-8.3,6.9H50
				L60.3,90.7L60.3,90.7z"/>
		</g>
	</g>
	<g>
		<path class="st4" d="M51.3,105.4L61,91.6l4-1.4l18,8.5c-1,3.5-5.7,18.8-9.2,30.1L51.3,105.4z"/>
		<g>
			<path d="M64.9,91.3l16.9,7.9c-1.3,4.4-5.3,17.3-8.4,27.6l-20.7-21.6l9-12.9L64.9,91.3 M65,89.1l-4.7,1.6L50,105.5l24.2,25.2
				c0,0,9.9-32.1,9.9-32.6L65,89.1L65,89.1z"/>
		</g>
	</g>
	<g>
		<polygon class="st1" points="47.6,125.6 32.3,106.5 49.6,106.5 71.5,129.2 		"/>
		<path d="M49.2,107.5l19.5,20.3l-20.6-3.2l-13.8-17.2H49.2 M50,105.5H30.2l16.9,21l27.2,4.2L50,105.5L50,105.5z"/>
	</g>
	<g>
		<polygon class="st1" points="84.7,99.8 105.8,115.8 75.8,128.9 		"/>
		<path d="M85.2,101.5l18.6,14.2l-26.4,11.5L85.2,101.5 M84.1,98.1l-9.9,32.6l33.5-14.6L84.1,98.1L84.1,98.1z"/>
	</g>
	<g>
		<polygon class="st4" points="85.7,98.1 100.1,85.9 120,91.9 107.4,114.6 		"/>
		<g>
			<path d="M100.3,87l18.2,5.5l-11.4,20.6L87.3,98L100.3,87 M99.8,84.8L84.1,98.1l23.6,18l13.8-24.8L99.8,84.8L99.8,84.8z"/>
		</g>
	</g>
	<g>
		<polygon class="st2" points="67.9,89.4 80.3,85.8 97.1,85.8 84,96.9 		"/>
		<g>
			<path d="M94.4,86.8l-10.6,9l-13.1-6.2l9.7-2.8H94.4 M99.8,84.8L99.8,84.8L99.8,84.8z M99.8,84.8H80.2L65,89.1l19.1,9L99.8,84.8
				L99.8,84.8z"/>
		</g>
	</g>
</g>
</svg>
